<svg width="353" height="320" viewBox="0 0 353 320" fill="none" xmlns="http://www.w3.org/2000/svg">
<mask id="mask0_49_677" style="mask-type:luminance" maskUnits="userSpaceOnUse" x="59" y="296" width="143" height="24">
<path d="M59.6799 296.953H201.318V320H59.6799V296.953Z" fill="white"/>
</mask>
<g mask="url(#mask0_49_677)">
<path d="M200.514 309.014C200.514 309.376 200.397 309.734 200.174 310.092C199.946 310.45 199.612 310.808 199.161 311.162C198.71 311.515 198.152 311.864 197.487 312.208C196.817 312.552 196.041 312.891 195.162 313.221C194.279 313.556 193.298 313.881 192.21 314.198C191.127 314.514 189.946 314.825 188.667 315.123C187.389 315.42 186.017 315.709 184.557 315.988C183.097 316.267 181.554 316.532 179.926 316.787C178.299 317.043 176.593 317.285 174.812 317.513C173.036 317.74 171.19 317.954 169.275 318.154C167.359 318.354 165.388 318.54 163.356 318.707C161.329 318.879 159.251 319.033 157.121 319.172C154.997 319.307 152.83 319.428 150.626 319.535C148.427 319.637 146.195 319.726 143.936 319.795C141.681 319.865 139.407 319.921 137.115 319.953C134.823 319.991 132.526 320.009 130.225 320.009C127.923 320.009 125.627 319.991 123.334 319.953C121.047 319.921 118.769 319.865 116.514 319.795C114.254 319.726 112.027 319.637 109.823 319.535C107.62 319.428 105.453 319.307 103.328 319.172C101.199 319.033 99.1206 318.879 97.0935 318.707C95.0617 318.54 93.0904 318.354 91.1749 318.154C89.264 317.954 87.4136 317.74 85.6375 317.513C83.8568 317.285 82.1551 317.043 80.5232 316.787C78.896 316.532 77.3524 316.267 75.8925 315.988C74.4326 315.709 73.0657 315.42 71.7824 315.123C70.5039 314.825 69.3229 314.514 68.2396 314.198C67.1517 313.881 66.1707 313.556 65.2873 313.221C64.4086 312.891 63.6321 312.552 62.9673 312.208C62.2978 311.864 61.7399 311.515 61.2889 311.162C60.8425 310.808 60.5031 310.45 60.2753 310.092C60.0521 309.734 59.9406 309.376 59.9406 309.014C59.9406 308.656 60.0521 308.298 60.2753 307.94C60.5031 307.582 60.8425 307.224 61.2889 306.87C61.7399 306.517 62.2978 306.168 62.9673 305.824C63.6321 305.48 64.4086 305.141 65.2873 304.811C66.1707 304.476 67.1517 304.15 68.2396 303.834C69.3229 303.518 70.5039 303.206 71.7824 302.909C73.0657 302.607 74.4326 302.318 75.8925 302.039C77.3524 301.765 78.896 301.496 80.5232 301.244C82.1551 300.989 83.8568 300.747 85.6375 300.519C87.4136 300.291 89.264 300.073 91.1749 299.873C93.0904 299.673 95.0617 299.492 97.0935 299.32C99.1206 299.152 101.199 298.999 103.328 298.859C105.453 298.72 107.62 298.599 109.823 298.497C112.027 298.39 114.254 298.306 116.514 298.232C118.769 298.162 121.047 298.111 123.334 298.074C125.627 298.041 127.923 298.022 130.225 298.022C132.526 298.022 134.823 298.041 137.115 298.074C139.407 298.111 141.681 298.162 143.936 298.232C146.195 298.306 148.427 298.39 150.626 298.497C152.83 298.599 154.997 298.72 157.121 298.859C159.251 298.999 161.329 299.152 163.356 299.32C165.388 299.492 167.359 299.673 169.275 299.873C171.19 300.073 173.036 300.291 174.812 300.519C176.593 300.747 178.299 300.989 179.926 301.24C181.554 301.496 183.097 301.765 184.557 302.039C186.017 302.318 187.389 302.607 188.667 302.909C189.946 303.206 191.127 303.518 192.21 303.834C193.298 304.15 194.279 304.476 195.162 304.811C196.041 305.141 196.817 305.48 197.487 305.824C198.152 306.168 198.71 306.517 199.161 306.87C199.612 307.224 199.946 307.582 200.174 307.94C200.397 308.298 200.514 308.656 200.514 309.014Z" fill="#414155"/>
</g>
<path d="M183.85 81.0655C165.588 54.4619 121.172 54.4619 121.172 54.4619C121.172 54.4619 76.7477 54.4619 58.4897 81.0655C41.7288 105.479 41.8869 138.838 41.8869 138.838L58.0759 159.621H184.269L200.453 138.838C200.453 138.838 200.616 105.479 183.85 81.0655Z" fill="#D5E9F2"/>
<path d="M183.878 81.0652C176.714 70.646 165.537 64.2903 154.592 60.436C160.255 63.9695 165.397 68.4515 169.344 74.2028C186.11 98.6212 185.952 131.98 185.952 131.98L169.763 152.763H52.7573L58.1041 159.621H184.292L200.481 138.838C200.481 138.838 200.639 105.479 183.878 81.0652Z" fill="#A8D7E9"/>
<path d="M161.436 86.4678C144.419 73.5798 97.9256 73.5798 80.9043 86.4678C62.4325 100.458 63.0555 133.849 63.0555 133.849H179.294C179.294 133.849 179.912 100.458 161.436 86.4678Z" fill="#002B43"/>
<path d="M63.539 133.849C64.6827 122.956 68.4534 104.726 80.9043 95.2969C97.9256 82.4135 144.419 82.4135 161.436 95.2969C173.887 104.726 177.662 122.951 178.801 133.849H179.294C179.294 133.849 179.926 100.458 161.445 86.4678C144.428 73.5798 97.9349 73.5798 80.9183 86.4678C62.4325 100.458 63.0555 133.849 63.0555 133.849H63.539Z" fill="#000F16"/>
<path d="M107.266 48.2271H135.079C135.409 48.2271 135.729 48.2875 136.032 48.4177C136.338 48.5432 136.608 48.7245 136.841 48.957C137.073 49.1895 137.254 49.4591 137.38 49.766C137.505 50.0682 137.571 50.389 137.571 50.7191V59.4506C137.571 59.7807 137.505 60.1015 137.38 60.4037C137.254 60.7106 137.073 60.9802 136.841 61.2127C136.608 61.4452 136.338 61.6265 136.032 61.752C135.729 61.8822 135.409 61.9426 135.079 61.9426H107.266C106.936 61.9426 106.615 61.8822 106.313 61.752C106.006 61.6265 105.736 61.4452 105.504 61.2127C105.272 60.9802 105.09 60.7106 104.965 60.4037C104.839 60.1015 104.774 59.7807 104.774 59.4506V50.7191C104.774 50.389 104.839 50.0682 104.965 49.766C105.09 49.4591 105.272 49.1895 105.504 48.957C105.736 48.7245 106.006 48.5432 106.313 48.4177C106.615 48.2875 106.936 48.2271 107.266 48.2271Z" fill="#D5E9F2"/>
<path d="M113.766 54.8798L117.504 19.9585H122.484L128.574 55.0843L113.766 54.8798Z" fill="#D5E9F2"/>
<path d="M58.0759 159.62H184.269L200.453 138.838H41.8868L58.0759 159.62Z" fill="#A8D7E9"/>
<path d="M137.571 55.3685C137.571 56.2472 137.008 56.9725 136.32 56.9725H122.418C121.73 56.9725 121.172 56.2612 121.172 55.3685V49.8125C121.172 48.9338 121.73 48.2085 122.418 48.2085H136.32C137.008 48.2085 137.571 48.9198 137.571 49.8125V55.3685Z" fill="#A8D7E9"/>
<path d="M96.3308 65.9268C94.3316 62.0492 85.1584 64.267 82.1689 65.6804C79.7279 66.8381 75.3018 69.3952 72.4843 72.0965C70.2247 73.9004 68.2348 75.9647 66.5145 78.2941C65.0732 80.2375 62.3533 84.2406 64.1154 86.7931C66.0356 89.6013 69.2716 87.165 70.8849 85.5471C75.0739 81.3254 78.2913 76.8109 83.9775 74.2398C86.7531 72.9938 98.7159 70.4971 96.3308 65.9268Z" fill="white"/>
<path d="M207.185 206.705L182.521 164.112H59.8196L35.1594 206.705C35.1594 206.705 36.2102 224.451 42.1613 240.673C51.3066 265.612 60.0288 275.594 60.0288 275.594L90.217 287.264L120.903 290.086V290.142C120.903 290.142 121.112 290.114 121.182 290.114C121.247 290.114 121.451 290.142 121.451 290.142V290.091L152.142 287.268L182.33 275.599C182.33 275.599 193.279 261.46 200.193 240.677C205.633 224.274 207.185 206.705 207.185 206.705Z" fill="#D5E9F2"/>
<path d="M182.52 164.112H153.467L178.131 206.705C178.131 206.705 176.579 224.274 171.125 240.673C164.216 261.46 161.12 269.736 153.262 275.594C146.776 280.425 123.079 287.264 123.079 287.264L106.643 288.775L120.898 290.086V290.142C120.898 290.142 121.103 290.114 121.172 290.114C121.242 290.114 121.442 290.142 121.442 290.142V290.091L152.132 287.268L182.321 275.599C182.321 275.599 193.27 261.46 200.183 240.677C205.632 224.279 207.185 206.709 207.185 206.709L182.52 164.112Z" fill="#A8D7E9"/>
<path d="M35.1548 206.705H207.185L200.481 219.477L35.1548 206.705Z" fill="#A8D7E9"/>
<path d="M69.69 234.949C69.2019 228.77 73.4142 220.248 66.3704 216.984C62.7486 215.306 56.6347 214.618 53.8358 218.221C52.7943 219.625 52.2457 221.197 52.1852 222.945C51.1763 227.352 53.5475 233.801 54.654 237.753C55.9559 242.407 60.475 258.763 68.802 254.309C74.4696 251.269 70.0387 239.524 69.69 234.949Z" fill="white"/>
<path d="M78.7378 173.006C74.9951 167.664 69.732 169.44 65.9846 173.322C57.6437 178.404 48.7774 199.164 61.4004 201.195C68.6627 202.367 70.8943 193.501 73.3538 188.712C75.6134 184.313 82.4108 178.255 78.7378 173.006Z" fill="white"/>
<path d="M189.676 164.112C189.676 164.112 243.641 130.525 254.018 130.525C264.396 130.525 260.244 149.229 243.641 169.663C227.526 189.483 211.677 201.302 211.677 201.302L189.676 164.112Z" fill="#D5E9F2"/>
<path d="M254.018 130.525C252.982 130.525 251.508 130.86 249.699 131.464C249.397 138.773 243.897 150.703 233.691 163.275C225.309 173.569 216.047 182.997 205.907 191.557L211.677 201.307C211.677 201.307 227.526 189.493 243.641 169.668C260.244 149.229 264.396 130.525 254.018 130.525Z" fill="#A8D7E9"/>
<path d="M242.404 138.34C240.991 137.411 236.867 139.507 235.7 140.084C233.742 141.046 228.689 144.231 227.629 147.272C226.457 148.876 226.248 150.429 228.191 151.396C231.12 152.856 239.271 146.24 241.042 144.064C242.13 142.706 244.352 139.614 242.404 138.34Z" fill="white"/>
<path d="M59.6755 279.267C59.6755 279.267 70.6341 307.879 79.8072 308.818C88.9804 309.758 89.2454 290.142 89.2454 290.142L59.6755 279.267Z" fill="#D5E9F2"/>
<path d="M81.8667 287.311C81.7644 290.087 80.9136 303.63 74.465 305.346C76.3526 307.322 78.2728 308.633 80.1186 308.819C89.2964 309.753 89.5614 290.142 89.5614 290.142L81.8667 287.311Z" fill="#A8D7E9"/>
<path d="M155.252 290.143C155.252 290.143 169.261 311.706 187.314 307.201C194.865 305.313 182.958 279.272 182.958 279.272L155.252 290.143Z" fill="#D5E9F2"/>
<path d="M182.957 279.267L175.439 282.215C178.466 289.83 183.255 303.955 177.769 305.322C176.337 305.68 174.886 305.885 173.412 305.931C177.592 307.684 182.297 308.446 187.314 307.196C194.864 305.308 182.957 279.267 182.957 279.267Z" fill="#A8D7E9"/>
<path d="M137.594 115.415C137.324 115.411 137.092 115.499 136.896 115.68C136.706 115.866 136.603 116.094 136.594 116.364C136.594 116.419 136.422 120.79 133.642 123.082C130.992 125.272 126.189 126.006 123.855 125.997C121.674 126.09 116.714 125.272 114.059 123.082C111.288 120.79 111.116 116.419 111.111 116.364C111.102 116.094 111 115.866 110.804 115.68C110.609 115.499 110.376 115.411 110.111 115.415C109.842 115.425 109.614 115.527 109.433 115.722C109.247 115.917 109.158 116.15 109.168 116.419C109.168 116.629 109.354 121.715 112.822 124.584C116.365 127.513 120.935 127.955 123.39 127.955C126.319 127.955 131.34 127.513 134.883 124.584C138.352 121.715 138.533 116.629 138.542 116.419C138.552 116.15 138.463 115.913 138.277 115.717C138.091 115.522 137.863 115.42 137.594 115.415Z" fill="#FF00E6"/>
<path d="M32.5745 201.06C32.5745 201.06 14.1677 221.043 5.50131 226.771C-1.06822 231.118 -6.00583 207.248 16.7853 186.271C39.0743 165.753 57.2067 162.526 57.2067 162.526L32.5745 201.06Z" fill="#D5E9F2"/>
<path d="M16.7853 186.271C39.0743 165.753 57.2067 162.526 57.2067 162.526L55.1564 165.73C48.1266 169.254 39.0603 174.949 29.1712 184.058C13.8376 198.145 11.0433 213.548 12.8519 220.815C10.5412 222.968 8.09099 224.953 5.50131 226.766C-1.06822 231.118 -6.00583 207.248 16.7853 186.271Z" fill="#A8D7E9"/>
<path d="M91.077 102.564C91.077 102.941 91.0399 103.317 90.9655 103.684C90.8911 104.056 90.7841 104.414 90.64 104.763C90.4959 105.116 90.3192 105.447 90.11 105.758C89.9008 106.074 89.6636 106.363 89.394 106.632C89.129 106.897 88.8407 107.139 88.5246 107.348C88.213 107.557 87.8829 107.734 87.5342 107.878C87.1855 108.022 86.8275 108.134 86.4556 108.208C86.0883 108.283 85.7117 108.32 85.3351 108.32C84.9585 108.32 84.5866 108.283 84.2146 108.208C83.8427 108.134 83.4847 108.027 83.136 107.883C82.7873 107.739 82.4572 107.562 82.1456 107.353C81.8295 107.139 81.5412 106.902 81.2716 106.637C81.0066 106.367 80.7694 106.079 80.5602 105.763C80.351 105.451 80.1697 105.121 80.0255 104.772C79.8814 104.419 79.7745 104.061 79.7001 103.689C79.6257 103.322 79.5885 102.945 79.5885 102.569C79.5885 102.192 79.6257 101.815 79.7001 101.448C79.7745 101.076 79.8814 100.718 80.0255 100.369C80.1697 100.021 80.3463 99.686 80.5556 99.3745C80.7648 99.0584 81.0066 98.7701 81.2716 98.5004C81.5366 98.2354 81.8295 97.9983 82.141 97.7844C82.4572 97.5752 82.7873 97.3986 83.136 97.2544C83.4847 97.1103 83.8427 97.0034 84.21 96.929C84.5819 96.8546 84.9539 96.8174 85.3304 96.8174C85.7117 96.8174 86.0836 96.8546 86.4509 96.929C86.8229 96.9987 87.1809 97.1103 87.5296 97.2544C87.8783 97.3986 88.2084 97.5752 88.5246 97.7844C88.8361 97.9937 89.129 98.2308 89.394 98.5004C89.659 98.7655 89.8961 99.0584 90.11 99.3699C90.3192 99.686 90.4959 100.016 90.64 100.365C90.7841 100.714 90.8911 101.072 90.9655 101.443C91.0399 101.811 91.077 102.187 91.077 102.564Z" fill="#FF00E6"/>
<path d="M164.053 102.564C164.058 102.941 164.021 103.317 163.946 103.684C163.872 104.056 163.765 104.414 163.621 104.763C163.477 105.116 163.3 105.447 163.091 105.758C162.882 106.074 162.645 106.363 162.375 106.632C162.11 106.897 161.817 107.139 161.506 107.348C161.194 107.557 160.859 107.734 160.515 107.878C160.166 108.022 159.804 108.134 159.437 108.208C159.065 108.283 158.693 108.32 158.316 108.32C157.939 108.32 157.563 108.283 157.196 108.208C156.824 108.134 156.466 108.027 156.117 107.883C155.768 107.739 155.438 107.562 155.122 107.353C154.81 107.139 154.518 106.902 154.253 106.637C153.988 106.367 153.746 106.079 153.537 105.763C153.327 105.451 153.151 105.121 153.006 104.772C152.862 104.419 152.755 104.061 152.681 103.689C152.607 103.322 152.569 102.945 152.569 102.569C152.569 102.192 152.607 101.815 152.681 101.448C152.751 101.076 152.862 100.718 153.006 100.369C153.151 100.021 153.327 99.686 153.537 99.3745C153.746 99.0584 153.983 98.7701 154.253 98.5004C154.518 98.2354 154.806 97.9983 155.122 97.7844C155.433 97.5752 155.764 97.3986 156.112 97.2544C156.461 97.1103 156.824 97.0034 157.191 96.929C157.563 96.8546 157.935 96.8174 158.311 96.8174C158.688 96.8174 159.065 96.8546 159.432 96.929C159.804 97.0034 160.162 97.1103 160.511 97.2544C160.859 97.3986 161.189 97.5752 161.501 97.7844C161.817 97.9937 162.105 98.2354 162.37 98.5004C162.64 98.7655 162.877 99.0584 163.086 99.3699C163.296 99.686 163.472 100.016 163.616 100.365C163.76 100.714 163.872 101.072 163.946 101.443C164.016 101.811 164.053 102.187 164.053 102.564Z" fill="#FF00E6"/>
<path d="M351.697 161.857C353.663 167.869 350.553 174.303 344.75 176.2L258.073 204.599C252.266 206.5 245.966 203.157 243.999 197.136L193.735 43.2801C191.768 37.2685 194.874 30.857 200.681 28.9368L287.354 0.533939C293.157 -1.36764 299.452 1.97059 301.423 7.99615L351.697 161.857Z" fill="black"/>
<path d="M291.883 0.0688477C293.631 1.5148 294.858 3.32339 295.556 5.48534L345.82 159.351C347.791 165.363 344.681 171.793 338.878 173.694L252.196 202.088C250.722 202.571 249.215 202.725 247.677 202.553C248.388 203.148 249.16 203.65 249.997 204.05C250.833 204.45 251.708 204.743 252.614 204.919C253.525 205.101 254.441 205.161 255.371 205.105C256.296 205.054 257.198 204.882 258.082 204.598L344.76 176.2C350.567 174.303 353.672 167.883 351.71 161.857L301.428 8.01459C301.098 6.96383 300.628 5.97817 300.014 5.0669C299.401 4.15098 298.666 3.34199 297.82 2.63529C296.974 1.93324 296.048 1.36137 295.035 0.924328C294.026 0.48729 292.975 0.199029 291.883 0.0688477Z" fill="#B400A3"/>
<path d="M342.114 157.668C343.937 163.247 341.361 169.096 336.358 170.737L261.611 195.216C256.608 196.857 251.075 193.663 249.253 188.084L202.694 45.5628C200.872 39.9882 203.447 34.1347 208.455 32.4981L283.198 8.01464C288.2 6.37341 293.733 9.56752 295.556 15.1421L342.114 157.668Z" fill="#002B43"/>
<path d="M215.196 44.6887L265.786 28.123L269.44 39.314L218.851 55.8797L215.196 44.6887Z" fill="#FF00E6"/>
<path d="M258.124 90.4062L308.718 73.8359L312.372 85.0269L261.783 101.597L258.124 90.4062Z" fill="#FF00E6"/>
<path d="M279.064 101.015L313.874 89.6152L317.528 100.806L282.723 112.206L279.064 101.015Z" fill="#FF00E6"/>
<path d="M252.14 157.691L286.945 146.291L290.599 157.482L255.794 168.882L252.14 157.691Z" fill="#FF00E6"/>
<path d="M257.264 173.378L292.069 161.978L295.723 173.169L260.918 184.564L257.264 173.378Z" fill="#FF00E6"/>
<path d="M249.397 130.065L319.579 107.083L323.233 118.274L253.051 141.256L249.397 130.065Z" fill="#FF00E6"/>
<path d="M221.584 64.2623L256.464 52.8389L259.946 63.5045L225.067 74.9233L221.584 64.2623Z" fill="#FF00E6"/>
<path d="M209.282 65.7413L243.278 21.089L256.575 16.686L217.107 89.6901L209.282 65.7413Z" fill="white" fill-opacity="0.2"/>
<path d="M227.284 120.845L235.36 145.566L299.038 25.8031L295.555 15.1421L227.284 120.845Z" fill="white" fill-opacity="0.2"/>
<path d="M278.557 189.67L323.6 101.002L327.408 112.644L309.75 179.45L278.557 189.67Z" fill="white" fill-opacity="0.2"/>
<path d="M237.657 152.586L300.842 31.3311L304.017 41.0342L242 165.874L237.657 152.586Z" fill="white" fill-opacity="0.2"/>
</svg>
