<svg width="22" height="21" viewBox="0 0 22 21" fill="none" xmlns="http://www.w3.org/2000/svg">
<path fill-rule="evenodd" clip-rule="evenodd" d="M18.1196 5.94016L13.0596 11.0002C12.7696 11.2902 12.2896 11.2902 11.9996 11.0002C11.7096 10.7102 11.7096 10.2302 11.9996 9.94016L17.0596 4.88016C17.5767 4.3666 18.2759 4.07837 19.0046 4.07837C19.7334 4.07837 20.4326 4.3666 20.9496 4.88016L21.0096 4.94016C21.2996 5.23016 21.2996 5.71016 21.0096 6.00016C20.7196 6.29016 20.2396 6.29016 19.9496 6.00016L19.8896 5.94016C19.7735 5.82375 19.6356 5.7314 19.4837 5.66838C19.3319 5.60537 19.1691 5.57293 19.0046 5.57293C18.8402 5.57293 18.6774 5.60537 18.5256 5.66838C18.3737 5.7314 18.2358 5.82375 18.1196 5.94016ZM7.99964 5.94016L8.05964 5.88016C8.53964 5.40016 8.53964 4.60016 8.05964 4.12016L7.99964 4.06016C7.70964 3.77016 7.70964 3.29016 7.99964 3.00016C8.28964 2.70016 8.76964 2.70016 9.06964 3.00016L9.11964 3.05016C9.63321 3.56722 9.92143 4.2664 9.92143 4.99516C9.92143 5.72392 9.63321 6.42311 9.11964 6.94016L9.05964 7.00016C8.76964 7.29016 8.28964 7.29016 7.99964 7.00016C7.70964 6.71016 7.70964 6.23016 7.99964 5.94016ZM13.9996 11.9402L15.0596 10.8802C15.5767 10.3666 16.2759 10.0784 17.0046 10.0784C17.7334 10.0784 18.4326 10.3666 18.9496 10.8802L20.0296 11.9602C20.3196 12.2502 20.3196 12.7302 20.0296 13.0202C19.7396 13.3102 19.2596 13.3102 18.9696 13.0202L17.8896 11.9402C17.7735 11.8238 17.6356 11.7314 17.4837 11.6684C17.3319 11.6054 17.1691 11.5729 17.0046 11.5729C16.8402 11.5729 16.6774 11.6054 16.5256 11.6684C16.3737 11.7314 16.2358 11.8238 16.1196 11.9402L15.0596 13.0002C14.7696 13.2902 14.2896 13.2902 13.9996 13.0002C13.7096 12.7102 13.7096 12.2302 13.9996 11.9402ZM9.99964 7.94016L13.0596 4.88016C13.5396 4.40016 13.5396 3.60016 13.0596 3.11016L11.9996 2.05016C11.7096 1.76016 11.7096 1.28016 11.9996 0.990162C12.1408 0.850682 12.3312 0.772461 12.5296 0.772461C12.7281 0.772461 12.9185 0.850682 13.0596 0.990162L14.1196 2.05016C14.6332 2.56722 14.9214 3.2664 14.9214 3.99516C14.9214 4.72392 14.6332 5.42311 14.1196 5.94016L11.0596 9.00016C10.7696 9.29016 10.2896 9.29016 9.99964 9.00016C9.70964 8.71016 9.70964 8.23016 9.99964 7.94016Z" fill="#E2FF00"/>
<path d="M1.98964 20.2902L11.0296 17.0602C12.4096 16.5702 12.8096 14.8002 11.7696 13.7602L7.23964 9.23016C6.19964 8.19016 4.43964 8.59016 3.93964 9.97016L0.709642 19.0102C0.429642 19.8102 1.18964 20.5702 1.98964 20.2902Z" fill="#DA4D04"/>
</svg>
