<svg width="20" height="20" viewBox="0 0 20 20" fill="none" xmlns="http://www.w3.org/2000/svg">
<path d="M3.00071 9.0001V13.0001L0.710715 15.2901C0.524464 15.4775 0.419922 15.7309 0.419922 15.9951C0.419922 16.2593 0.524464 16.5127 0.710715 16.7001L3.29071 19.2901C3.38368 19.3838 3.49428 19.4582 3.61614 19.509C3.738 19.5598 3.8687 19.5859 4.00071 19.5859C4.13273 19.5859 4.26343 19.5598 4.38529 19.509C4.50715 19.4582 4.61775 19.3838 4.71071 19.2901L9.00071 15.0001H13.0007C13.2659 15.0001 13.5203 14.8947 13.7078 14.7072C13.8954 14.5197 14.0007 14.2653 14.0007 14.0001V13.0001H15.0007C15.2659 13.0001 15.5203 12.8947 15.7078 12.7072C15.8954 12.5197 16.0007 12.2653 16.0007 12.0001V11.0001H17.0007C17.2659 11.0001 17.5203 10.8947 17.7078 10.7072C17.8954 10.5197 18.0007 10.2653 18.0007 10.0001V9.0001H11.0007V10.0001C11.0007 10.5305 10.79 11.0392 10.4149 11.4143C10.0399 11.7894 9.53115 12.0001 9.00071 12.0001H7.00071C6.47028 12.0001 5.96157 11.7894 5.5865 11.4143C5.21143 11.0392 5.00071 10.5305 5.00071 10.0001V7.0001L3.00071 9.0001Z" fill="#DA4D04"/>
<path d="M9.00071 4.0001H12.0007L15.2907 0.700095C15.3837 0.606367 15.4943 0.531972 15.6161 0.481204C15.738 0.430435 15.8687 0.404297 16.0007 0.404297C16.1327 0.404297 16.2634 0.430435 16.3853 0.481204C16.5072 0.531972 16.6178 0.606367 16.7107 0.700095L19.2907 3.2901C19.477 3.47746 19.5815 3.73091 19.5815 3.9951C19.5815 4.25928 19.477 4.51273 19.2907 4.7001L17.0007 7.0001H9.00071V9.0001C9.00071 9.26531 8.89536 9.51967 8.70782 9.7072C8.52028 9.89474 8.26593 10.0001 8.00071 10.0001C7.7355 10.0001 7.48114 9.89474 7.29361 9.7072C7.10607 9.51967 7.00071 9.26531 7.00071 9.0001V6.0001C7.00071 5.46966 7.21143 4.96095 7.5865 4.58588C7.96157 4.21081 8.47028 4.0001 9.00071 4.0001Z" fill="#E2FF00"/>
</svg>
