<svg width="20" height="20" viewBox="0 0 20 20" fill="none" xmlns="http://www.w3.org/2000/svg">
<path fill-rule="evenodd" clip-rule="evenodd" d="M7.48972 17.4492C7.44716 17.4458 7.40686 17.4286 7.37498 17.4002C4.47898 14.8142 1.85398 11.5642 0.0309751 8.1542C0.0141748 8.12259 0.00625744 8.08702 0.00806521 8.05127C0.00987298 8.01552 0.0213383 7.98093 0.0412414 7.95117C0.0611445 7.92142 0.0887408 7.89762 0.121094 7.88231C0.153448 7.86699 0.189348 7.86073 0.224975 7.8642L3.59497 8.1712C4.00164 8.20786 4.40898 8.2412 4.81698 8.2712C4.89866 8.27699 4.9766 8.30771 5.04026 8.35922C5.10393 8.41072 5.15025 8.48052 5.17298 8.5592L7.69298 17.1972C7.70532 17.2381 7.70397 17.2819 7.68913 17.3219C7.6743 17.362 7.64679 17.3961 7.6108 17.419C7.57481 17.442 7.53229 17.4526 7.48972 17.4492ZM9.99998 19.3482C9.92698 19.3482 9.86698 19.2962 9.84698 19.2262L6.76297 8.6522C6.754 8.62156 6.75248 8.58922 6.75856 8.55788C6.76463 8.52654 6.77812 8.49711 6.79789 8.47205C6.81767 8.44699 6.84315 8.42703 6.87222 8.41383C6.90129 8.40064 6.93309 8.39459 6.96498 8.3962C8.98738 8.48273 11.0126 8.48273 13.035 8.3962C13.067 8.39453 13.0989 8.40058 13.1281 8.41383C13.1572 8.42708 13.1828 8.44715 13.2026 8.47234C13.2224 8.49752 13.2358 8.5271 13.2418 8.55857C13.2478 8.59005 13.2461 8.6225 13.237 8.6532L10.153 19.2262C10.1446 19.2606 10.125 19.2912 10.0973 19.3133C10.0696 19.3354 10.0354 19.3477 9.99998 19.3482ZM12.625 17.4002C12.477 17.5322 12.251 17.3872 12.307 17.1972L14.827 8.5592C14.8497 8.48052 14.896 8.41072 14.9597 8.35922C15.0234 8.30771 15.1013 8.27699 15.183 8.2712C15.5903 8.2412 15.998 8.20786 16.406 8.1712L19.776 7.8642C19.8115 7.86093 19.8473 7.86734 19.8795 7.88273C19.9117 7.89813 19.9391 7.92195 19.9589 7.95167C19.9787 7.98138 19.9901 8.01589 19.9918 8.05155C19.9936 8.0872 19.9857 8.12267 19.969 8.1542C18.146 11.5642 15.521 14.8132 12.625 17.4002Z" fill="#E2FF00"/>
<path d="M7.19998 0.976196C7.21245 0.945818 7.21726 0.912835 7.21397 0.880159C7.21068 0.847483 7.19939 0.81612 7.18111 0.78884C7.16282 0.76156 7.1381 0.739203 7.10913 0.723743C7.08015 0.708283 7.04782 0.700196 7.01498 0.700196H4.52498C4.28203 0.700122 4.04271 0.759057 3.82758 0.871933C3.61246 0.984809 3.42797 1.14825 3.28998 1.3482L0.0519752 6.0432C0.0320637 6.07199 0.0200569 6.1055 0.0171547 6.14038C0.0142525 6.17526 0.0205565 6.2103 0.0354369 6.24198C0.0503172 6.27367 0.0732526 6.30089 0.101951 6.32093C0.130649 6.34098 0.164105 6.35313 0.198975 6.3562L3.72998 6.6762C4.00064 6.7022 4.27164 6.72553 4.54298 6.7462C4.62719 6.75252 4.71124 6.73203 4.78309 6.68766C4.85494 6.64329 4.91091 6.57732 4.94298 6.4992L7.19998 0.976196Z" fill="#DA4D04"/>
<path d="M11.165 0.946196C11.1345 0.873209 11.0831 0.810884 11.0173 0.767098C10.9514 0.723313 10.8741 0.700031 10.795 0.700196H9.20498C9.12589 0.700031 9.04853 0.723313 8.98268 0.767098C8.91682 0.810884 8.86542 0.873209 8.83498 0.946196L6.47698 6.6042C6.46477 6.6338 6.45985 6.66591 6.46263 6.69782C6.46541 6.72972 6.47581 6.76049 6.49296 6.78754C6.51011 6.81459 6.53351 6.83712 6.56118 6.85324C6.58885 6.86937 6.61999 6.87861 6.65198 6.8802C8.88198 6.9882 11.118 6.9882 13.349 6.8802C13.3809 6.87846 13.4119 6.8691 13.4394 6.85292C13.467 6.83673 13.4902 6.81418 13.5073 6.78715C13.5243 6.76013 13.5346 6.72941 13.5374 6.69758C13.5401 6.66575 13.5352 6.63373 13.523 6.6042L11.165 0.946196Z" fill="#DA4D04"/>
<path d="M19.801 6.3562C19.8358 6.35313 19.8693 6.34098 19.898 6.32093C19.9267 6.30089 19.9496 6.27367 19.9645 6.24198C19.9794 6.2103 19.9857 6.17526 19.9828 6.14038C19.9799 6.1055 19.9679 6.07199 19.948 6.0432L16.71 1.3482C16.572 1.14825 16.3875 0.984809 16.1724 0.871933C15.9572 0.759057 15.7179 0.700122 15.475 0.700196H12.985C12.9521 0.700196 12.9198 0.708283 12.8908 0.723743C12.8618 0.739203 12.8371 0.76156 12.8188 0.78884C12.8006 0.81612 12.7893 0.847483 12.786 0.880159C12.7827 0.912835 12.7875 0.945818 12.8 0.976196L15.057 6.4992C15.089 6.57732 15.145 6.64329 15.2169 6.68766C15.2887 6.73203 15.3728 6.75252 15.457 6.7462C15.7276 6.72553 15.9986 6.7022 16.27 6.6762L19.801 6.3562Z" fill="#DA4D04"/>
</svg>
