<svg width="18" height="18" viewBox="0 0 18 18" fill="none" xmlns="http://www.w3.org/2000/svg">
<path d="M5.66591 12.7349C5.91091 12.9079 6.20291 12.9999 6.50191 12.9989V12.9949C6.78423 12.9956 7.06053 12.9134 7.29646 12.7583C7.5324 12.6033 7.71756 12.3823 7.82891 12.1229L8.44191 10.2589C8.58341 9.83658 8.82126 9.45301 9.13662 9.13851C9.45199 8.82401 9.83622 8.58722 10.2589 8.44689L12.0369 7.86889C12.3238 7.76877 12.5718 7.58057 12.7453 7.33116C12.9189 7.08174 13.0093 6.78387 13.0035 6.48005C12.9978 6.17623 12.8962 5.882 12.7132 5.63936C12.5303 5.39671 12.2754 5.21806 11.9849 5.12889L10.2299 4.55889C9.80549 4.41742 9.41986 4.17902 9.1036 3.86258C8.78734 3.54615 8.54915 3.16039 8.40791 2.73589L7.82991 0.95889C7.72911 0.675865 7.54265 0.431266 7.29645 0.25908C7.05024 0.0868949 6.75652 -0.0043255 6.45609 -0.00190622C6.15566 0.000513064 5.86344 0.096452 5.62004 0.27258C5.37664 0.448708 5.19415 0.696278 5.09791 0.98089L4.51491 2.77289C4.37413 3.18505 4.14171 3.55991 3.83512 3.86926C3.52854 4.17862 3.15579 4.41441 2.74491 4.55889L0.967914 5.12889C0.682706 5.22758 0.435586 5.41315 0.261281 5.65952C0.0869757 5.90589 -0.0057542 6.20069 -0.00387834 6.50248C-0.00200248 6.80428 0.0943847 7.0979 0.271739 7.34209C0.449094 7.58627 0.698501 7.76876 0.984914 7.86389L2.73891 8.43289C3.16328 8.57535 3.54876 8.81445 3.86494 9.13133C4.18113 9.44821 4.41938 9.83421 4.56091 10.2589L5.13891 12.0339C5.23791 12.3169 5.42191 12.5619 5.66591 12.7349Z" fill="#DA4D04"/>
<path d="M13.3329 17.7809C13.1421 17.645 12.9987 17.4526 12.9229 17.2309L12.5949 16.2249C12.5313 16.0334 12.424 15.8594 12.2815 15.7165C12.139 15.5737 11.9652 15.466 11.7739 15.4019L10.7829 15.0789C10.5562 15.0021 10.3591 14.8565 10.2191 14.6623C10.0791 14.4682 10.0032 14.2352 10.0019 13.9959C10.0016 13.7579 10.0758 13.5258 10.2141 13.3322C10.3523 13.1385 10.5478 12.9929 10.7729 12.9159L11.7789 12.5899C11.966 12.5234 12.1354 12.4149 12.2741 12.2728C12.4128 12.1306 12.5171 11.9586 12.5789 11.7699L12.9029 10.7789C12.9791 10.5547 13.1231 10.3596 13.315 10.2208C13.5069 10.0819 13.7371 10.0061 13.974 10.0038C14.2108 10.0015 14.4425 10.0728 14.637 10.2079C14.8316 10.343 14.9793 10.5352 15.0599 10.7579L15.3889 11.7719C15.4533 11.962 15.5609 12.1346 15.7031 12.2761C15.8454 12.4177 16.0185 12.5244 16.2089 12.5879L17.2009 12.9109C17.4296 12.9824 17.63 13.1241 17.7736 13.3159C17.9172 13.5076 17.9968 13.7398 18.0012 13.9793C18.0055 14.2189 17.9343 14.4537 17.7976 14.6505C17.661 14.8474 17.4659 14.9962 17.2399 15.0759L16.2259 15.4049C16.0352 15.4692 15.8621 15.577 15.7202 15.7196C15.5782 15.8623 15.4713 16.0359 15.4079 16.2269L15.0859 17.2159C15.0079 17.4459 14.8599 17.6459 14.6609 17.7859C14.4668 17.9239 14.2343 17.9976 13.9961 17.9967C13.7579 17.9958 13.526 17.9204 13.3329 17.7809Z" fill="#E2FF00"/>
</svg>
