<svg width="24" height="24" viewBox="0 0 24 24" fill="none" xmlns="http://www.w3.org/2000/svg">
<g clip-path="url(#clip0_144_212)">
<path d="M23.47 5.8769C23.3323 5.38186 23.0638 4.93054 22.6911 4.5679C22.3185 4.20525 21.8547 3.94393 21.346 3.80995C19.4835 3.31567 11.9878 3.31567 11.9878 3.31567C11.9878 3.31567 4.49177 3.33064 2.62933 3.82491C2.1206 3.9589 1.65681 4.22023 1.28415 4.5829C0.911497 4.94556 0.642976 5.39689 0.50533 5.89195C-0.0580132 9.11212 -0.276544 14.0189 0.520799 17.1103C0.658459 17.6053 0.926986 18.0566 1.29964 18.4193C1.6723 18.7819 2.13608 19.0432 2.6448 19.1772C4.50724 19.6715 12.0031 19.6715 12.0031 19.6715C12.0031 19.6715 19.4989 19.6715 21.3612 19.1772C21.87 19.0433 22.3338 18.7819 22.7064 18.4193C23.0791 18.0566 23.3477 17.6053 23.4853 17.1103C24.0795 13.8855 24.2626 8.98176 23.47 5.8769Z" fill="#FF0000"/>
<path d="M9.60205 14.9986L15.8203 11.4938L9.60205 7.98901V14.9986Z" fill="white"/>
</g>
<defs>
<clipPath id="clip0_144_212">
<rect width="24" height="16.4211" fill="white" transform="translate(0 3.31567)"/>
</clipPath>
</defs>
</svg>
